<svg width="456" height="456" viewBox="0 0 456 456" fill="none" xmlns="http://www.w3.org/2000/svg">
<path d="M338 228.5C338 288.975 288.751 338 228 338C167.249 338 118 288.975 118 228.5C118 168.025 167.249 119 228 119C288.751 119 338 168.025 338 228.5ZM144.996 228.5C144.996 276.88 179.398 313.846 228 313.846C276.602 313.846 312.212 280.663 312.212 232.283C312.212 183.903 276.602 146.375 228 146.375C179.398 146.375 144.996 180.12 144.996 228.5Z" fill="#00E1D0"/>
<path d="M338 231H313V336H338V231Z" fill="#00E1D0"/>
<path d="M230 315V338H338V315H230Z" fill="#00E1D0"/>
<path d="M262 263L337 264.869L263.869 338L262 263Z" fill="#00E1D0"/>
</svg>
